<svg xmlns="http://www.w3.org/2000/svg" style="display:none"><symbol id="icon-arrow-left" viewBox="0 0 32 32"><path d="M12.586 27.414l-10-10a2 2 0 0 1 0-2.828l10-10a2 2 0 1 1 2.828 2.828L8.828 14H28a2 2 0 1 1 0 4H8.828l6.586 6.586c.39.39.586.902.586 1.414s-.195 1.024-.586 1.414a2 2 0 0 1-2.828 0z"/></symbol><symbol id="icon-arrow-right" viewBox="0 0 32 32"><path d="M19.414 27.414l10-10a2 2 0 0 0 0-2.828l-10-10a2 2 0 1 0-2.828 2.828L23.172 14H4a2 2 0 1 0 0 4h19.172l-6.586 6.586c-.39.39-.586.902-.586 1.414s.195 1.024.586 1.414a2 2 0 0 0 2.828 0z"/></symbol><symbol id="icon-chevron-circle-left" viewBox="0 0 32 32"><path d="M16 32c8.837 0 16-7.163 16-16S24.837 0 16 0 0 7.163 0 16s7.163 16 16 16zm0-29c7.18 0 13 5.82 13 13s-5.82 13-13 13S3 23.18 3 16 8.82 3 16 3z"/><path d="M20.914 9.914l-2.829-2.829-8.914 8.914 8.914 8.914 2.828-2.828-6.086-6.086z"/></symbol><symbol id="icon-chevron-circle-right" viewBox="0 0 32 32"><path d="M16 0C7.163 0 0 7.163 0 16s7.163 16 16 16 16-7.163 16-16S24.837 0 16 0zm0 29C8.82 29 3 23.18 3 16S8.82 3 16 3s13 5.82 13 13-5.82 13-13 13z"/><path d="M11.086 22.086l2.829 2.829 8.914-8.914-8.914-8.914-2.828 2.828 6.086 6.086z"/></symbol><symbol id="icon-chevron-left" viewBox="0 0 20 20"><path d="M12.452 4.516c.446.436.481 1.043 0 1.576L8.705 10l3.747 3.908c.481.533.446 1.141 0 1.574-.445.436-1.197.408-1.615 0-.418-.406-4.502-4.695-4.502-4.695a1.095 1.095 0 0 1 0-1.576s4.084-4.287 4.502-4.695 1.17-.436 1.615 0z"/></symbol><symbol id="icon-chevron-right" viewBox="0 0 20 20"><path d="M9.163 4.516c.418.408 4.502 4.695 4.502 4.695a1.095 1.095 0 0 1 0 1.576s-4.084 4.289-4.502 4.695c-.418.408-1.17.436-1.615 0-.446-.434-.481-1.041 0-1.574L11.295 10 7.548 6.092c-.481-.533-.446-1.141 0-1.576s1.197-.409 1.615 0z"/></symbol><symbol id="icon-chevron-small-left" viewBox="0 0 20 20"><path d="M12.141 13.418c.268.271.268.709 0 .978s-.701.272-.969 0l-3.83-3.908a.697.697 0 0 1 0-.979l3.83-3.908c.267-.27.701-.27.969 0s.268.709 0 .978L9 10l3.141 3.418z"/></symbol><symbol id="icon-chevron-small-right" viewBox="0 0 20 20"><path d="M11 10L7.859 6.58a.695.695 0 0 1 0-.978.68.68 0 0 1 .969 0l3.83 3.908a.697.697 0 0 1 0 .979l-3.83 3.908c-.267.272-.701.27-.969 0s-.268-.707 0-.978L11 10z"/></symbol><symbol id="icon-codepen" viewBox="0 0 32 32"><path d="M3.857 20.875l10.768 7.179v-6.411l-5.964-3.982zM2.75 18.304L6.196 16 2.75 13.696v4.607zm14.625 9.75l10.768-7.179-4.804-3.214-5.964 3.982v6.411zM16 19.25L20.857 16 16 12.75 11.143 16zm-7.339-4.911l5.964-3.982V3.946L3.857 11.125zM25.804 16l3.446 2.304v-4.607zm-2.465-1.661l4.804-3.214-10.768-7.179v6.411zM32 11.125v9.75q0 .732-.607 1.143l-14.625 9.75Q16.393 32 16 32t-.768-.232L.607 22.018Q0 21.607 0 20.875v-9.75q0-.732.607-1.143L15.232.232Q15.607 0 16 0t.768.232l14.625 9.75q.607.411.607 1.143z"/></symbol><symbol id="icon-dropbox" viewBox="0 0 32 32"><path d="M7.179 12.625L16 18.071 9.893 23.16l-8.75-5.696zm17.607 9.911v1.929l-8.75 5.232v.018l-.018-.018-.018.018v-.018l-8.732-5.232v-1.929l2.625 1.714L16 19.179v-.036l.018.018.018-.018v.036l6.125 5.071zM9.893 2.107L16 7.196l-8.821 5.429-6.036-4.821zm14.928 10.518l6.036 4.839-8.732 5.696L16 18.071zM22.125 2.107l8.732 5.696-6.036 4.821L16 7.195z"/></symbol><symbol id="icon-envelope-square" viewBox="0 0 27 32"><path d="M22.286 2.286q2.125 0 3.634 1.509t1.509 3.634v17.143q0 2.125-1.509 3.634t-3.634 1.509H5.143q-2.125 0-3.634-1.509T0 24.572V7.429q0-2.125 1.509-3.634t3.634-1.509h17.143zm.571 18.857v-7.786q-.554.625-1.143.982-.607.393-2.366 1.518t-2.705 1.768q-1.75 1.232-2.929 1.232-1.179 0-2.929-1.232-.821-.571-2.527-1.652t-2.545-1.652q-.214-.143-.589-.482t-.554-.482v7.786q0 .714.5 1.214t1.214.5h14.857q.714 0 1.214-.5t.5-1.214zm0-10.232q0-.732-.491-1.25t-1.223-.518H6.286q-.714 0-1.214.5t-.5 1.214q0 .661.545 1.366t1.205 1.152q.839.571 2.455 1.589t2.313 1.482l.304.205q.25.169.375.25t.375.232.42.232.384.17.402.134.366.045.366-.045.402-.134.384-.17.42-.232.375-.232.375-.25.304-.205l4.768-3.107q.625-.411 1.188-1.116t.563-1.313z"/></symbol><symbol id="icon-envelope" viewBox="0 0 32 32"><path d="M32 12.679v14.179q0 1.179-.839 2.018t-2.018.839H2.857q-1.179 0-2.018-.839T0 26.858V12.679q.786.875 1.804 1.554 6.464 4.393 8.875 6.161 1.018.75 1.652 1.17t1.688.857 1.964.438h.036q.911 0 1.964-.438t1.688-.857 1.652-1.17q3.036-2.196 8.893-6.161 1.018-.696 1.786-1.554zm0-5.25q0 1.411-.875 2.696t-2.179 2.196q-6.714 4.661-8.357 5.804-.179.125-.759.545t-.964.679-.929.58-1.027.482-.893.161h-.036q-.411 0-.893-.161t-1.027-.482-.929-.58-.964-.679-.759-.545q-1.625-1.143-4.679-3.259t-3.661-2.545q-1.107-.75-2.089-2.063T-.002 7.82q0-1.393.741-2.321t2.116-.929h26.286q1.161 0 2.009.839t.848 2.018z"/></symbol><symbol id="icon-facebook-square" viewBox="0 0 27 32"><path d="M22.286 2.286q2.125 0 3.634 1.509t1.509 3.634v17.143q0 2.125-1.509 3.634t-3.634 1.509h-3.357V19.09h3.554l.536-4.143H18.93v-2.643q0-1 .42-1.5t1.634-.5l2.179-.018V6.59q-1.125-.161-3.179-.161-2.429 0-3.884 1.429t-1.455 4.036v3.054h-3.571v4.143h3.571v10.625h-9.5q-2.125 0-3.634-1.509T.002 24.573V7.43q0-2.125 1.509-3.634t3.634-1.509h17.143z"/></symbol><symbol id="icon-facebook" viewBox="0 0 19 32"><path d="M17.125.214v4.714h-2.804q-1.536 0-2.071.643T11.714 7.5v3.375h5.232l-.696 5.286h-4.536v13.554H6.25V16.161H1.696v-5.286H6.25V6.982q0-3.321 1.857-5.152T13.053 0q2.625 0 4.071.214z"/></symbol><symbol id="icon-flickr-square" viewBox="0 0 27 32"><path d="M22.286 2.286q2.125 0 3.634 1.509t1.509 3.634v17.143q0 2.125-1.509 3.634t-3.634 1.509H5.143q-2.125 0-3.634-1.509T0 24.572V7.429q0-2.125 1.509-3.634t3.634-1.509h17.143zM12.464 16q0-1.571-1.107-2.679t-2.679-1.107-2.679 1.107T4.892 16t1.107 2.679 2.679 1.107 2.679-1.107T12.464 16zm10.072 0q0-1.571-1.107-2.679t-2.679-1.107-2.679 1.107T14.964 16t1.107 2.679 2.679 1.107 2.679-1.107T22.536 16z"/></symbol><symbol id="icon-flickr" viewBox="0 0 32 32"><path d="M0 17a7 7 0 1 1 14 0 7 7 0 0 1-14 0zm18 0a7 7 0 1 1 14 0 7 7 0 0 1-14 0z"/></symbol><symbol id="icon-github-square" viewBox="0 0 27 32"><path d="M9.268 21.429q.071-.107-.054-.232-.161-.125-.25-.036-.071.107.054.232.161.125.25.036zm-.5-.733q-.089-.125-.214-.071-.107.071 0 .214.125.143.214.089.107-.071 0-.232zm-.732-.714q.036-.071-.089-.143-.125-.036-.143.036-.054.089.071.143.143.036.161-.036zm.375.411q.036-.018.027-.08t-.063-.098q-.107-.125-.179-.054t.018.196q.107.107.196.036zm1.535 1.339q.036-.125-.161-.196-.161-.054-.232.071-.036.125.161.196.161.054.232-.071zm.75.054q0-.143-.214-.143-.179 0-.179.143t.196.143.196-.143zm.697-.125q-.036-.125-.232-.089t-.161.161q.036.143.214.107t.179-.179zM22.857 16q0-3.786-2.679-6.464t-6.464-2.679T7.25 9.536 4.571 16q0 2.982 1.75 5.366t4.5 3.313q.321.054.473-.089t.152-.357q0-.929-.018-1.696l-.277.045q-.17.027-.634.036t-.857-.071-.777-.357-.527-.741q-.411-1.054-1.018-1.321-.036-.018-.08-.063l-.143-.143-.125-.17.071-.134.348-.063q.107 0 .268.036t.536.277.589.634q.286.5.67.75t.777.25.679-.063.536-.17q.125-.839.589-1.232-.875-.107-1.536-.33t-1.304-.696-.991-1.357-.348-2.134q0-1.411.946-2.446-.429-1.107.089-2.429.339-.107.973.134t1.08.527l.464.286q1.036-.304 2.286-.304t2.286.304q.196-.125.509-.321t.991-.464 1.018-.161q.518 1.321.089 2.429.946 1.036.946 2.446 0 1.018-.25 1.795t-.634 1.25-.955.795-1.116.464-1.223.214q.625.554.625 1.696 0 .714-.009 1.589t-.009.911q0 .214.152.357t.473.089q2.75-.929 4.5-3.313t1.75-5.366zm4.572-8.571v17.143q0 2.125-1.509 3.634t-3.634 1.509H5.143q-2.125 0-3.634-1.509T0 24.572V7.429q0-2.125 1.509-3.634t3.634-1.509h17.143q2.125 0 3.634 1.509t1.509 3.634z"/></symbol><symbol id="icon-github" viewBox="0 0 30 32"><path d="M11.429 21.714q0 .714-.223 1.464t-.768 1.357-1.295.607-1.295-.607-.768-1.357-.223-1.464.223-1.464.768-1.357 1.295-.607 1.295.607.768 1.357.223 1.464zm11.428 0q0 .714-.223 1.464t-.768 1.357-1.295.607-1.295-.607-.768-1.357-.223-1.464.223-1.464.768-1.357 1.295-.607 1.295.607.768 1.357.223 1.464zm2.857 0q0-2.143-1.232-3.643t-3.339-1.5q-.732 0-3.482.375-1.268.196-2.804.196t-2.804-.196q-2.714-.375-3.482-.375-2.107 0-3.339 1.5T4 21.714q0 1.571.571 2.741t1.446 1.839 2.179 1.071 2.5.527 2.661.125h3q1.464 0 2.661-.125t2.5-.527 2.179-1.071 1.446-1.839.571-2.741zm4-3.143q0 3.696-1.089 5.911-.679 1.375-1.884 2.375t-2.518 1.536-3.036.848-3.063.393-2.982.08q-1.393 0-2.536-.054t-2.634-.223-2.723-.536-2.446-.92-2.161-1.446-1.536-2.054Q-.001 22.285-.001 18.57q0-4.232 2.429-7.071-.482-1.464-.482-3.036 0-2.071.911-3.893 1.929 0 3.393.705T9.625 7.48q2.625-.625 5.518-.625 2.643 0 5 .571 1.875-1.464 3.339-2.161t3.375-.696q.911 1.821.911 3.893 0 1.554-.482 3 2.429 2.857 2.429 7.107z"/></symbol><symbol id="icon-google-plus-square" viewBox="0 0 27 32"><path d="M16.375 16.161q0-.464-.107-1.143H9.804v2.357h3.875q-.054.429-.295.893t-.67.946-1.188.795-1.723.313q-1.768 0-3.018-1.268T5.535 16t1.25-3.054 3.018-1.268q1.643 0 2.732 1.054l1.857-1.804q-1.929-1.786-4.589-1.786-2.857 0-4.857 2.009t-2 4.848 2 4.848 4.857 2.009q2.946 0 4.759-1.875t1.812-4.821zm6.161.821h1.946v-1.964h-1.946v-1.964h-1.964v1.964h-1.964v1.964h1.964v1.964h1.964v-1.964zm4.893-9.553v17.143q0 2.125-1.509 3.634t-3.634 1.509H5.143q-2.125 0-3.634-1.509T0 24.572V7.429q0-2.125 1.509-3.634t3.634-1.509h17.143q2.125 0 3.634 1.509t1.509 3.634z"/></symbol><symbol id="icon-google-plus" viewBox="0 0 41 32"><path d="M25.661 16.304q0 3.714-1.554 6.616t-4.429 4.536-6.589 1.634q-2.661 0-5.089-1.036t-4.179-2.786-2.786-4.179T-.001 16t1.036-5.089 2.786-4.179T8 3.946t5.089-1.036q5.107 0 8.768 3.429L18.303 9.75q-2.089-2.018-5.214-2.018-2.196 0-4.063 1.107t-2.955 3.009T4.982 16t1.089 4.152 2.955 3.009 4.063 1.107q1.482 0 2.723-.411t2.045-1.027 1.402-1.402.875-1.482.384-1.321h-7.429v-4.5h12.357q.214 1.125.214 2.179zm15.482-2.179v3.75h-3.732v3.732h-3.75v-3.732h-3.732v-3.75h3.732v-3.732h3.75v3.732h3.732z"/></symbol><symbol id="icon-instagram" viewBox="0 0 27 32"><path d="M18.286 16q0-1.893-1.339-3.232t-3.232-1.339-3.232 1.339T9.144 16t1.339 3.232 3.232 1.339 3.232-1.339T18.286 16zm2.464 0q0 2.929-2.054 4.982t-4.982 2.054-4.982-2.054T6.678 16t2.054-4.982 4.982-2.054 4.982 2.054T20.75 16zm1.929-7.321q0 .679-.482 1.161t-1.161.482-1.161-.482-.482-1.161.482-1.161 1.161-.482 1.161.482.482 1.161zM13.714 4.75l-1.366-.009q-1.241-.009-1.884 0t-1.723.054-1.839.179-1.277.33q-.893.357-1.571 1.036T3.018 7.911q-.196.518-.33 1.277t-.179 1.839-.054 1.723 0 1.884T2.464 16t-.009 1.366 0 1.884.054 1.723.179 1.839.33 1.277q.357.893 1.036 1.571t1.571 1.036q.518.196 1.277.33t1.839.179 1.723.054 1.884 0 1.366-.009 1.366.009 1.884 0 1.723-.054 1.839-.179 1.277-.33q.893-.357 1.571-1.036t1.036-1.571q.196-.518.33-1.277t.179-1.839.054-1.723 0-1.884T24.964 16t.009-1.366 0-1.884-.054-1.723-.179-1.839-.33-1.277q-.357-.893-1.036-1.571t-1.571-1.036q-.518-.196-1.277-.33t-1.839-.179-1.723-.054-1.884 0-1.366.009zM27.429 16q0 4.089-.089 5.661-.179 3.714-2.214 5.75t-5.75 2.214q-1.571.089-5.661.089t-5.661-.089q-3.714-.179-5.75-2.214T.09 21.661Q.001 20.09.001 16t.089-5.661q.179-3.714 2.214-5.75t5.75-2.214q1.571-.089 5.661-.089t5.661.089q3.714.179 5.75 2.214t2.214 5.75q.089 1.571.089 5.661z"/></symbol><symbol id="icon-linkedin-square" viewBox="0 0 27 32"><path d="M4.232 25.25h4.125V12.857H4.232V25.25zM8.625 9.036q-.018-.929-.643-1.536t-1.661-.607-1.688.607-.652 1.536q0 .911.634 1.527t1.652.616h.018q1.054 0 1.696-.616t.643-1.527zM19.071 25.25h4.125v-7.107q0-2.75-1.304-4.161t-3.446-1.411q-2.429 0-3.732 2.089h.036v-1.804h-4.125q.054 1.179 0 12.393h4.125V18.32q0-.679.125-1 .268-.625.804-1.063T17 15.819q2.071 0 2.071 2.804v6.625zm8.358-17.821v17.143q0 2.125-1.509 3.634t-3.634 1.509H5.143q-2.125 0-3.634-1.509T0 24.572V7.429q0-2.125 1.509-3.634t3.634-1.509h17.143q2.125 0 3.634 1.509t1.509 3.634z"/></symbol><symbol id="icon-linkedin" viewBox="0 0 27 32"><path d="M6.232 11.161v17.696H.339V11.161h5.893zm.375-5.465Q6.625 7 5.705 7.875t-2.42.875h-.036q-1.464 0-2.357-.875t-.893-2.179q0-1.321.92-2.188t2.402-.866 2.375.866.911 2.188zm20.822 13.018v10.143h-5.875v-9.464q0-1.875-.723-2.938t-2.259-1.063q-1.125 0-1.884.616t-1.134 1.527q-.196.536-.196 1.446v9.875H9.483q.036-7.125.036-11.554t-.018-5.286l-.018-.857h5.875v2.571h-.036q.357-.571.732-1t1.009-.929 1.554-.777 2.045-.277q3.054 0 4.911 2.027t1.857 5.938z"/></symbol><symbol id="icon-menu-toggle" viewBox="0 0 100 100"><g class="svg-menu-toggle"><path d="M5 13h90v14H5z"/><path d="M5 43h90v14H5z"/><path d="M5 73h90v14H5z"/></g></symbol><symbol id="icon-phone-square" viewBox="0 0 27 32"><path d="M22.857 21.304q0-.196-.036-.286-.054-.143-.688-.527t-1.58-.884l-.946-.518q-.089-.054-.339-.232t-.446-.268-.375-.089q-.321 0-.839.58t-1.018 1.17-.786.589q-.125 0-.295-.063t-.277-.116-.304-.17-.25-.152q-1.768-.982-3.045-2.259t-2.259-3.045q-.036-.054-.152-.25t-.17-.304-.116-.277-.063-.295q0-.232.366-.598t.804-.688.804-.705.366-.652q0-.179-.089-.375t-.268-.446-.232-.339q-.054-.107-.268-.509t-.446-.813-.473-.848-.446-.723-.295-.321-.286-.036q-.857 0-1.804.393-.821.375-1.429 1.688t-.607 2.33q0 .286.045.607t.089.545.161.589.179.527.223.589.196.536q1.071 2.929 3.866 5.723t5.723 3.866q.107.036.536.196t.589.223.527.179.589.161.545.089.607.045q1.018 0 2.33-.607t1.688-1.429q.393-.946.393-1.804zm4.572-13.875v17.143q0 2.125-1.509 3.634t-3.634 1.509H5.143q-2.125 0-3.634-1.509T0 24.572V7.429q0-2.125 1.509-3.634t3.634-1.509h17.143q2.125 0 3.634 1.509t1.509 3.634z"/></symbol><symbol id="icon-phone" viewBox="0 0 25 32"><path d="M25.143 22.143q0 .482-.179 1.259t-.375 1.223q-.375.893-2.179 1.893-1.679.911-3.321.911-.482 0-.938-.063t-1.027-.223-.848-.259-.991-.366-.875-.321q-1.75-.625-3.125-1.482-2.286-1.411-4.723-3.848t-3.848-4.723q-.857-1.375-1.482-3.125-.054-.161-.321-.875t-.366-.991-.259-.848-.223-1.027T0 8.34q0-1.643.911-3.321 1-1.804 1.893-2.179.446-.196 1.223-.375t1.259-.179q.25 0 .375.054.321.107.946 1.357.196.339.536.964t.625 1.134.554.955q.054.071.313.446t.384.634.125.509q0 .357-.509.893t-1.107.982-1.107.946-.509.821q0 .161.089.402t.152.366.25.429.205.339q1.357 2.446 3.107 4.196t4.196 3.107q.036.018.339.205t.429.25.366.152.402.089q.321 0 .821-.509t.946-1.107.982-1.107.893-.509q.25 0 .509.125t.634.384.446.313q.446.268.955.554t1.134.625.964.536q1.25.625 1.357.946.054.125.054.375z"/></symbol><symbol id="icon-pinterest-square" viewBox="0 0 27 32"><path d="M22.286 2.286q2.125 0 3.634 1.509t1.509 3.634v17.143q0 2.125-1.509 3.634t-3.634 1.509H9.34q1.518-2.179 1.929-3.75.161-.607.946-3.732.375.696 1.313 1.196t2.009.5q3.232 0 5.277-2.634t2.045-6.67q0-1.5-.625-2.902t-1.723-2.482-2.723-1.732-3.518-.652q-1.857 0-3.473.509T8.065 8.732t-1.92 1.955-1.188 2.286-.384 2.366q0 1.821.705 3.214t2.08 1.964q.232.089.42 0t.259-.339q.179-.786.268-1.089.107-.411-.196-.75-.893-1.107-.893-2.679 0-2.679 1.848-4.58t4.83-1.902q2.661 0 4.152 1.446t1.491 3.75q0 3-1.205 5.107t-3.098 2.107q-1.071 0-1.732-.777t-.411-1.848q.143-.607.473-1.652t.527-1.821.196-1.33q0-.875-.473-1.455t-1.348-.58q-1.089 0-1.848 1.009t-.759 2.491q0 1.286.429 2.161l-1.75 7.393q-.429 1.786-.125 4.536H5.145q-2.125 0-3.634-1.509T.002 24.572V7.429q0-2.125 1.509-3.634t3.634-1.509h17.143z"/></symbol><symbol id="icon-pinterest" viewBox="0 0 23 32"><path d="M0 10.661q0-1.929.67-3.634t1.848-2.973 2.714-2.196T8.536.465t3.607-.464q2.821 0 5.25 1.188t3.946 3.455 1.518 5.125q0 1.714-.339 3.357t-1.071 3.161-1.786 2.67-2.589 1.839-3.375.688q-1.214 0-2.411-.571t-1.714-1.571q-.179.696-.5 2.009t-.42 1.696-.366 1.268-.464 1.268-.571 1.116-.821 1.384-1.107 1.545l-.25.089-.161-.179q-.268-2.804-.268-3.357 0-1.643.384-3.688t1.188-5.134.929-3.625q-.571-1.161-.571-3.018 0-1.482.929-2.786T9.86 6.626q1.089 0 1.696.723t.607 1.83q0 1.179-.786 3.411t-.786 3.339q0 1.125.804 1.866t1.946.741q.982 0 1.821-.446t1.402-1.214 1-1.696.679-1.973.357-1.982.116-1.777q0-3.089-1.955-4.813t-5.098-1.723q-3.571 0-5.964 2.313t-2.393 5.866q0 .786.223 1.518t.482 1.161.482.813.223.545q0 .5-.268 1.304t-.661.804q-.036 0-.304-.054-.911-.268-1.616-1T.778 14.494t-.58-1.929-.196-1.902z"/></symbol><symbol id="icon-reddit-square" viewBox="0 0 27 32"><path d="M16.768 20.161q.232.232 0 .464-.946.946-3.054.946t-3.054-.946q-.232-.232 0-.464.089-.107.232-.107t.232.107q.75.75 2.589.75t2.589-.75q.089-.107.232-.107t.232.107zm-4.697-2.786q0 .554-.411.964t-.964.411-.964-.411-.411-.964q0-.571.402-.973t.973-.402.973.402.402.973zm6.036 0q0 .554-.411.964t-.964.411-.964-.411-.411-.964q0-.571.402-.973t.973-.402.973.402.402.973zm3.839-1.839q0-.75-.536-1.286t-1.304-.536q-.75 0-1.304.554-2.018-1.393-4.768-1.464l.964-4.339 3.054.696q.018.571.42.964t.955.393q.571 0 .973-.402t.402-.973-.402-.973-.973-.402q-.857 0-1.232.768l-3.375-.75q-.304-.089-.375.232l-1.071 4.786q-2.75.107-4.732 1.482-.536-.571-1.321-.571-.768 0-1.304.536t-.536 1.286q0 .536.286.982t.75.679q-.089.446-.089.857 0 2.179 2.143 3.723t5.161 1.545q3.036 0 5.179-1.545t2.143-3.723q0-.446-.107-.875.446-.232.723-.67t.277-.973zm5.483-8.107v17.143q0 2.125-1.509 3.634t-3.634 1.509H5.143q-2.125 0-3.634-1.509T0 24.572V7.429q0-2.125 1.509-3.634t3.634-1.509h17.143q2.125 0 3.634 1.509t1.509 3.634z"/></symbol><symbol id="icon-reddit" viewBox="0 0 32 32"><path d="M32 15.107q0 1.036-.527 1.884t-1.42 1.295q.214.821.214 1.714 0 2.768-1.902 5.125t-5.188 3.723-7.143 1.366T8.9 28.848t-5.179-3.723T1.819 20q0-.839.196-1.679-.911-.446-1.464-1.313t-.554-1.902q0-1.464 1.036-2.509t2.518-1.045q1.518 0 2.589 1.125 3.893-2.714 9.196-2.893L17.407.48q.054-.232.268-.375t.464-.089l6.589 1.446q.321-.661.964-1.063t1.411-.402q1.107 0 1.893.777t.786 1.884-.786 1.893-1.893.786-1.884-.777-.777-1.884l-5.964-1.321-1.857 8.429q5.357.161 9.268 2.857 1.036-1.089 2.554-1.089 1.482 0 2.518 1.045t1.036 2.509zM7.464 18.661q0 1.107.777 1.893t1.884.786 1.893-.786.786-1.893-.786-1.884T10.125 16q-1.089 0-1.875.786t-.786 1.875zM21.929 25q.196-.196.196-.464t-.196-.464q-.179-.179-.446-.179t-.464.179q-.732.75-2.161 1.107t-2.857.357-2.857-.357-2.161-1.107q-.196-.179-.464-.179t-.446.179q-.196.179-.196.455t.196.473q.768.768 2.116 1.214t2.188.527 1.625.08 1.625-.08 2.188-.527T21.931 25zm-.054-3.661q1.107 0 1.884-.786t.777-1.893q0-1.089-.786-1.875t-1.875-.786q-1.107 0-1.893.777t-.786 1.884.786 1.893 1.893.786z"/></symbol><symbol id="icon-rss-square" viewBox="0 0 27 32"><path d="M9.143 22.857q0-.946-.67-1.616t-1.616-.67-1.616.67-.67 1.616.67 1.616 1.616.67 1.616-.67.67-1.616zm6.268 1.679q-.232-4.143-3.161-7.071t-7.071-3.161q-.25-.018-.429.161t-.179.411v2.286q0 .232.152.393t.384.179q2.75.196 4.714 2.161t2.161 4.714q.018.232.179.384t.393.152h2.286q.232 0 .411-.179t.161-.429zm6.857.018q-.089-2.75-1-5.313t-2.491-4.643-3.661-3.661-4.643-2.491-5.313-1q-.25-.018-.411.161-.179.179-.179.411v2.286q0 .232.161.393t.393.179q3.643.125 6.75 1.991t4.973 4.973 1.991 6.75q.018.232.179.393t.393.161h2.286q.232 0 .411-.179.196-.161.161-.411zm5.161-17.125v17.143q0 2.125-1.509 3.634t-3.634 1.509H5.143q-2.125 0-3.634-1.509T0 24.572V7.429q0-2.125 1.509-3.634t3.634-1.509h17.143q2.125 0 3.634 1.509t1.509 3.634z"/></symbol><symbol id="icon-rss" viewBox="0 0 25 32"><path d="M6.857 24q0 1.429-1 2.429t-2.429 1-2.429-1-1-2.429 1-2.429 2.429-1 2.429 1 1 2.429zM16 26.196q.036.5-.304.857-.321.375-.839.375h-2.411q-.446 0-.768-.295t-.357-.741q-.393-4.089-3.295-6.991t-6.991-3.295q-.446-.036-.741-.357t-.295-.768V12.57q0-.518.375-.839.304-.304.768-.304h.089q2.857.232 5.464 1.438t4.625 3.241q2.036 2.018 3.241 4.625t1.438 5.464zm9.143.036q.036.482-.321.839-.321.357-.821.357h-2.554q-.464 0-.795-.313t-.348-.759q-.214-3.839-1.804-7.295t-4.134-6-6-4.134-7.295-1.821q-.446-.018-.759-.348t-.313-.777V3.427q0-.5.357-.821.321-.321.786-.321h.054q4.679.232 8.955 2.143t7.598 5.25q3.339 3.321 5.25 7.598t2.143 8.955z"/></symbol><symbol id="icon-skype" viewBox="0 0 27 32"><path d="M20.946 18.982q0-.893-.348-1.634t-.866-1.223-1.304-.875-1.473-.607-1.563-.411l-1.857-.429q-.536-.125-.786-.188t-.625-.205-.536-.286-.295-.375-.134-.536q0-1.375 2.571-1.375.768 0 1.375.214t.964.509.679.598.714.518.857.214q.839 0 1.348-.571t.509-1.375q0-.982-1-1.777T16.64 7.963t-3.25-.411q-1.214 0-2.357.277t-2.134.839-1.589 1.554-.598 2.295q0 1.089.339 1.902t1 1.348 1.429.866 1.839.58l2.607.643q1.607.393 2 .643.571.357.571 1.071 0 .696-.714 1.152t-1.875.455q-.911 0-1.634-.286t-1.161-.688-.813-.804-.821-.688-.964-.286q-.893 0-1.348.536T6.712 20.3q0 1.643 2.179 2.813t5.196 1.17q1.304 0 2.5-.33t2.188-.955 1.58-1.67.589-2.348zm6.483 3.875q0 2.839-2.009 4.848t-4.848 2.009q-2.321 0-4.179-1.429-1.375.286-2.679.286-2.554 0-4.884-.991t-4.018-2.679-2.679-4.018-.991-4.884q0-1.304.286-2.679-1.429-1.857-1.429-4.179 0-2.839 2.009-4.848t4.848-2.009q2.321 0 4.179 1.429 1.375-.286 2.679-.286 2.554 0 4.884.991t4.018 2.679 2.679 4.018.991 4.884q0 1.304-.286 2.679 1.429 1.857 1.429 4.179z"/></symbol><symbol id="icon-stumbleupon-square" viewBox="0 0 32 32"><path d="M26.625 0H5.375C2.419 0 0 2.419 0 5.375v21.25C0 29.581 2.419 32 5.375 32h21.25C29.581 32 32 29.581 32 26.625V5.375C32 2.419 29.581 0 26.625 0zM16 10c-1.103 0-2 .897-2 2v8c0 3.308-2.692 6-6 6s-6-2.692-6-6v-4h4v4c0 1.103.897 2 2 2s2-.897 2-2v-8c0-3.308 2.692-6 6-6s6 2.692 6 5.563v1.938l-2.563.75-1.438-.75v-1.938c0-.665-.897-1.563-2-1.563zm14 10c0 3.308-2.692 6-6 6s-6-2.692-6-6.438v-3.875l1.438.75 2.563-.75v3.875c0 1.54.897 2.438 2 2.438s2-.897 2-2v-4h4v4z"/></symbol><symbol id="icon-stumbleupon" viewBox="0 0 32 32"><path d="M16 10c-1.1 0-2 .9-2 2v8c0 3.306-2.694 6-6 6s-6-2.694-6-6v-4h4v4c0 1.1.9 2 2 2s2-.9 2-2v-8c0-3.306 2.694-6 6-6s6 2.694 6 5.563v1.938l-2.563.75-1.438-.75v-1.938c0-.662-.9-1.563-2-1.563z"/><path d="M30 20c0 3.306-2.694 6-6 6s-6-2.694-6-6.438v-3.875l1.438.75 2.563-.75v3.875c0 1.538.9 2.438 2 2.438s2-.9 2-2v-4h4v4z"/></symbol><symbol id="icon-tumblr-square" viewBox="0 0 27 32"><path d="M20.286 26.089l-1.107-3.268q-.786.393-1.839.393-.643.018-1.107-.188t-.688-.563-.313-.723-.089-.777v-7.107h4.589v-3.464h-4.571V4.571h-3.357q-.143 0-.161.179-.089.786-.313 1.554T10.634 8 9.259 9.696 7.143 10.91v2.946h2.321v7.464q0 1.018.384 2.054t1.161 1.982 2.161 1.527 3.152.545q1.232-.018 2.438-.446t1.527-.893zm7.143-18.66v17.143q0 2.125-1.509 3.634t-3.634 1.509H5.143q-2.125 0-3.634-1.509T0 24.572V7.429q0-2.125 1.509-3.634t3.634-1.509h17.143q2.125 0 3.634 1.509t1.509 3.634z"/></symbol><symbol id="icon-tumblr" viewBox="0 0 19 32"><path d="M16.857 23.732l1.429 4.232q-.411.625-1.982 1.179t-3.161.571q-1.857.036-3.402-.464t-2.545-1.321T5.5 26.036t-.991-2.143-.295-2.107v-9.714h-3V8.233Q2.5 7.769 3.518 6.992t1.625-1.607 1.036-1.821.607-1.768.268-1.58q.018-.089.08-.152t.134-.063h4.357v7.571h5.946v4.5h-5.964v9.25q0 .536.116 1t.402.938.884.741 1.455.25q1.393-.036 2.393-.518z"/></symbol><symbol id="icon-twitter-square" viewBox="0 0 27 32"><path d="M22.857 10.893q-1 .446-2.161.607 1.214-.714 1.661-2.089-1.161.679-2.393.911-1.089-1.179-2.732-1.179-1.554 0-2.652 1.098t-1.098 2.652q0 .518.089.857-2.304-.125-4.321-1.161T5.821 9.821q-.518.893-.518 1.893 0 2.036 1.625 3.125-.839-.018-1.786-.464v.036q0 1.339.893 2.384t2.196 1.295q-.518.143-.911.143-.232 0-.696-.071.375 1.125 1.33 1.857t2.17.75q-2.071 1.607-4.661 1.607-.464 0-.893-.054 2.643 1.679 5.75 1.679 2 0 3.75-.634t3-1.696 2.152-2.446 1.339-2.893.438-3.009q0-.321-.018-.482 1.125-.804 1.875-1.946zm4.572-3.464v17.143q0 2.125-1.509 3.634t-3.634 1.509H5.143q-2.125 0-3.634-1.509T0 24.572V7.429q0-2.125 1.509-3.634t3.634-1.509h17.143q2.125 0 3.634 1.509t1.509 3.634z"/></symbol><symbol id="icon-twitter" viewBox="0 0 30 32"><path d="M28.929 7.286q-1.196 1.75-2.893 2.982.018.25.018.75 0 2.321-.679 4.634t-2.063 4.437-3.295 3.759-4.607 2.607-5.768.973q-4.839 0-8.857-2.589.625.071 1.393.071 4.018 0 7.161-2.464-1.875-.036-3.357-1.152t-2.036-2.848q.589.089 1.089.089.768 0 1.518-.196-2-.411-3.313-1.991t-1.313-3.67v-.071q1.214.679 2.607.732-1.179-.786-1.875-2.054t-.696-2.75q0-1.571.786-2.911Q4.91 8.285 8.008 9.883t6.634 1.777q-.143-.679-.143-1.321 0-2.393 1.688-4.08t4.08-1.688q2.5 0 4.214 1.821 1.946-.375 3.661-1.393-.661 2.054-2.536 3.179 1.661-.179 3.321-.893z"/></symbol><symbol id="icon-vimeo-square" viewBox="0 0 27 32"><path d="M23.071 11.393q.179-3.857-2.875-3.964-4.125-.143-5.571 4.661.786-.339 1.464-.339 1.518 0 1.321 1.714-.071 1.018-1.321 2.982t-1.875 1.964q-.768 0-1.464-3.018-.232-.964-.804-4.554-.536-3.375-2.857-3.161-1.054.125-2.929 1.786l-2.893 2.571.929 1.196q1.357-.929 1.554-.929 1.018 0 1.911 3.196l.804 2.938.804 2.938q1.214 3.196 2.929 3.196 2.804 0 6.839-5.25 3.929-5.054 4.036-7.929zm4.358-3.964v17.143q0 2.125-1.509 3.634t-3.634 1.509H5.143q-2.125 0-3.634-1.509T0 24.572V7.429q0-2.125 1.509-3.634t3.634-1.509h17.143q2.125 0 3.634 1.509t1.509 3.634z"/></symbol><symbol id="icon-vimeo" viewBox="0 0 32 32"><path d="M30.518 9.25q-.179 4.214-5.929 11.625-5.946 7.696-10.036 7.696-2.536 0-4.286-4.696-.786-2.857-2.357-8.607-1.286-4.679-2.804-4.679-.321 0-2.268 1.357l-1.375-1.75q.429-.375 1.929-1.723T5.713 6.41q2.786-2.464 4.304-2.607 1.696-.161 2.732.991t1.446 3.634q.786 5.125 1.179 6.661.982 4.446 2.143 4.446.911 0 2.75-2.875 1.804-2.875 1.946-4.393.232-2.482-1.946-2.482-1.018 0-2.161.464 2.143-7.018 8.196-6.821 4.482.143 4.214 5.821z"/></symbol><symbol id="icon-wordpress" viewBox="0 0 32 32"><path d="M2.268 16q0-2.911 1.196-5.589l6.554 17.946q-3.5-1.696-5.625-5.018T2.268 16zm23-.696q0 .339-.045.688t-.179.884-.205.786-.313 1.054-.313 1.036l-1.357 4.571-4.964-14.75q.821-.054 1.571-.143.339-.036.464-.33t-.045-.554-.509-.241l-3.661.179q-1.339-.018-3.607-.179-.214-.018-.366.089t-.205.268-.027.33.161.295.348.143l1.429.143 2.143 5.857-3 9-5-14.857q.821-.054 1.571-.143.339-.036.464-.33t-.045-.554-.509-.241l-3.661.179q-.125 0-.411-.009t-.464-.009q1.875-2.857 4.902-4.527t6.563-1.67q2.625 0 5.009.946t4.259 2.661h-.179q-.982 0-1.643.723t-.661 1.705q0 .214.036.429t.071.384.143.411.161.375.214.402.223.375.259.429.25.411q1.125 1.911 1.125 3.786zm-9.036 1.892l4.232 11.554q.018.107.089.196-2.25.786-4.554.786-2 0-3.875-.571zm11.804-7.785q1.696 3.107 1.696 6.589 0 3.732-1.857 6.884t-4.982 4.973l4.196-12.107q1.054-3.018 1.054-4.929 0-.75-.107-1.411zM16 0q3.25 0 6.214 1.268t5.107 3.411 3.411 5.107T32 16t-1.268 6.214-3.411 5.107-5.107 3.411T16 32t-6.214-1.268-5.107-3.411-3.411-5.107T0 16t1.268-6.214 3.411-5.107 5.107-3.411T16 0zm0 31.268q3.089 0 5.92-1.214t4.875-3.259 3.259-4.875T31.268 16t-1.214-5.92-3.259-4.875-4.875-3.259T16 .732t-5.92 1.214-4.875 3.259-3.259 4.875T.732 16t1.214 5.92 3.259 4.875 4.875 3.259T16 31.268z"/></symbol><symbol id="icon-youtube-square" viewBox="0 0 27 32"><path d="M16.411 23.268v-2.804q0-.893-.518-.893-.304 0-.589.286v4q.286.286.589.286.518 0 .518-.875zm3.285-2.179h1.179v-.607q0-.911-.589-.911t-.589.911v.607zM9.5 16.339v1.25H8.071v7.554H6.75v-7.554H5.357v-1.25H9.5zm3.589 2.25v6.554h-1.196v-.714q-.696.804-1.357.804-.589 0-.75-.5-.107-.286-.107-.964V18.59h1.179v4.821q0 .429.018.464.018.268.268.268.357 0 .75-.554v-5h1.196zm4.5 1.982v2.607q0 .929-.125 1.304-.214.75-.946.75-.625 0-1.214-.732v.643h-1.196v-8.804h1.196v2.875q.571-.714 1.214-.714.732 0 .946.75.125.375.125 1.321zm4.482 2.304v.161q0 .518-.036.768-.054.393-.268.714-.482.714-1.429.714-.929 0-1.446-.679-.375-.482-.375-1.536v-2.304q0-1.054.357-1.536.518-.679 1.429-.679t1.393.679q.375.5.375 1.536v1.357h-2.375v1.161q0 .911.607.911.429 0 .536-.464 0-.018.009-.125t.009-.295v-.384h1.214zM14.018 8.161v2.786q0 .911-.571.911t-.571-.911V8.161q0-.929.571-.929t.571.929zm9.518 12.732q0-3.161-.339-4.643-.179-.786-.768-1.313t-1.357-.616q-2.429-.268-7.357-.268-4.911 0-7.339.268-.786.089-1.366.616t-.759 1.313q-.357 1.554-.357 4.643 0 3.143.357 4.643.179.768.759 1.304t1.348.625q2.446.268 7.357.268t7.357-.268q.768-.089 1.348-.625t.759-1.304q.357-1.5.357-4.643zM10.054 9.268l1.607-5.286h-1.339l-.911 3.482-.946-3.482H7.072l.429 1.232.411 1.232q.625 1.839.821 2.821v3.589h1.321V9.267zm5.16 1.446V8.393q0-1.036-.375-1.554-.518-.679-1.393-.679-.911 0-1.393.679-.375.518-.375 1.554v2.321q0 1.036.375 1.554.482.679 1.393.679.875 0 1.393-.679.375-.482.375-1.554zm3.232 2.143h1.196V6.25h-1.196v5.054q-.393.554-.75.554-.268 0-.286-.286-.018-.036-.018-.464V6.251h-1.196v5.232q0 .661.107.982.196.482.768.482.643 0 1.375-.804v.714zm8.983-5.428v17.143q0 2.125-1.509 3.634t-3.634 1.509H5.143q-2.125 0-3.634-1.509T0 24.572V7.429q0-2.125 1.509-3.634t3.634-1.509h17.143q2.125 0 3.634 1.509t1.509 3.634z"/></symbol><symbol id="icon-youtube" viewBox="0 0 27 32"><path d="M17.339 22.214v3.768q0 1.196-.696 1.196-.411 0-.804-.393V21.41q.393-.393.804-.393.696 0 .696 1.196zm6.036.018v.821h-1.607v-.821q0-1.214.804-1.214t.804 1.214zm-17.25-3.893h1.911V16.66H2.465v1.679H4.34V28.5h1.786V18.339zM11.268 28.5h1.589v-8.821h-1.589v6.75q-.536.75-1.018.75-.321 0-.375-.375-.018-.054-.018-.625v-6.5H8.268v6.982q0 .875.143 1.304.214.661 1.036.661.857 0 1.821-1.089v.964zm7.661-2.643v-3.518q0-1.304-.161-1.768-.304-1-1.268-1-.893 0-1.661.964V16.66H14.25v11.839h1.589v-.857q.804.982 1.661.982.964 0 1.268-.982.161-.482.161-1.786zm6.035-.178v-.232h-1.625q0 .911-.036 1.089-.125.643-.714.643-.821 0-.821-1.232v-1.554h3.196v-1.839q0-1.411-.482-2.071-.696-.911-1.893-.911-1.214 0-1.911.911-.5.661-.5 2.071v3.089q0 1.411.518 2.071.696.911 1.929.911 1.286 0 1.929-.946.321-.482.375-.964.036-.161.036-1.036zM14.107 9.375v-3.75q0-1.232-.768-1.232t-.768 1.232v3.75q0 1.25.768 1.25t.768-1.25zm12.839 13.411q0 4.179-.464 6.25-.25 1.054-1.036 1.768t-1.821.821Q20.339 32 13.714 32t-9.911-.375q-1.036-.107-1.83-.821T.946 29.036q-.464-2-.464-6.25 0-4.179.464-6.25.25-1.054 1.036-1.768t1.839-.839q3.268-.357 9.893-.357t9.911.357q1.036.125 1.83.839t1.027 1.768q.464 2 .464 6.25zM9.125 0h1.821L8.785 7.125v4.839H6.999V7.125q-.25-1.321-1.089-3.786Q5.249 1.5 4.749 0h1.893L7.91 4.696zm6.607 5.946v3.125q0 1.446-.5 2.107-.661.911-1.893.911-1.196 0-1.875-.911-.5-.679-.5-2.107V5.946q0-1.429.5-2.089.679-.911 1.875-.911 1.232 0 1.893.911.5.661.5 2.089zm5.982-2.892v8.911h-1.625v-.982q-.946 1.107-1.839 1.107-.821 0-1.054-.661-.143-.429-.143-1.339V3.054h1.625v6.554q0 .589.018.625.054.393.375.393.482 0 1.018-.768V3.054h1.625z"/></symbol></svg>