<?xml version="1.0" encoding="utf-8"?>
<!-- Generated by IcoMoon.io -->
<!DOCTYPE svg PUBLIC "-//W3C//DTD SVG 1.1//EN" "http://www.w3.org/Graphics/SVG/1.1/DTD/svg11.dtd">
<svg version="1.1" xmlns="http://www.w3.org/2000/svg" xmlns:xlink="http://www.w3.org/1999/xlink" width="27" height="32" viewBox="0 0 27 32">
<path d="M22.286 2.286q2.125 0 3.634 1.509t1.509 3.634v17.143q0 2.125-1.509 3.634t-3.634 1.509h-17.143q-2.125 0-3.634-1.509t-1.509-3.634v-17.143q0-2.125 1.509-3.634t3.634-1.509h17.143zM22.857 21.143v-7.786q-0.554 0.625-1.143 0.982-0.607 0.393-2.366 1.518t-2.705 1.768q-1.75 1.232-2.929 1.232v0 0q-1.179 0-2.929-1.232-0.821-0.571-2.527-1.652t-2.545-1.652q-0.214-0.143-0.589-0.482t-0.554-0.482v7.786q0 0.714 0.5 1.214t1.214 0.5h14.857q0.714 0 1.214-0.5t0.5-1.214zM22.857 10.911q0-0.732-0.491-1.25t-1.223-0.518h-14.857q-0.714 0-1.214 0.5t-0.5 1.214q0 0.661 0.545 1.366t1.205 1.152q0.839 0.571 2.455 1.589t2.313 1.482q0.054 0.036 0.304 0.205t0.375 0.25 0.375 0.232 0.42 0.232 0.384 0.17 0.402 0.134 0.366 0.045 0.366-0.045 0.402-0.134 0.384-0.17 0.42-0.232 0.375-0.232 0.375-0.25 0.304-0.205l4.768-3.107q0.625-0.411 1.188-1.116t0.563-1.313z"></path>
</svg>
