<?xml version="1.0" encoding="utf-8"?>
<!-- Generated by IcoMoon.io -->
<!DOCTYPE svg PUBLIC "-//W3C//DTD SVG 1.1//EN" "http://www.w3.org/Graphics/SVG/1.1/DTD/svg11.dtd">
<svg version="1.1" xmlns="http://www.w3.org/2000/svg" xmlns:xlink="http://www.w3.org/1999/xlink" width="27" height="32" viewBox="0 0 27 32">
<path d="M9.268 21.429q0.071-0.107-0.054-0.232-0.161-0.125-0.25-0.036-0.071 0.107 0.054 0.232 0.161 0.125 0.25 0.036zM8.768 20.696q-0.089-0.125-0.214-0.071-0.107 0.071 0 0.214 0.125 0.143 0.214 0.089 0.107-0.071 0-0.232zM8.036 19.982q0.036-0.071-0.089-0.143-0.125-0.036-0.143 0.036-0.054 0.089 0.071 0.143 0.143 0.036 0.161-0.036zM8.411 20.393q0.036-0.018 0.027-0.080t-0.063-0.098q-0.107-0.125-0.179-0.054t0.018 0.196q0.107 0.107 0.196 0.036zM9.946 21.732q0.036-0.125-0.161-0.196-0.161-0.054-0.232 0.071-0.036 0.125 0.161 0.196 0.161 0.054 0.232-0.071zM10.696 21.786q0-0.143-0.214-0.143-0.179 0-0.179 0.143t0.196 0.143 0.196-0.143zM11.393 21.661q-0.036-0.125-0.232-0.089t-0.161 0.161q0.036 0.143 0.214 0.107t0.179-0.179zM22.857 16q0-3.786-2.679-6.464t-6.464-2.679-6.464 2.679-2.679 6.464q0 2.982 1.75 5.366t4.5 3.313q0.321 0.054 0.473-0.089t0.152-0.357q0-0.929-0.018-1.696-0.107 0.018-0.277 0.045t-0.634 0.036-0.857-0.071-0.777-0.357-0.527-0.741q-0.411-1.054-1.018-1.321-0.036-0.018-0.080-0.063l-0.143-0.143t-0.125-0.17 0.071-0.134 0.348-0.063q0.107 0 0.268 0.036t0.536 0.277 0.589 0.634q0.286 0.5 0.67 0.75t0.777 0.25 0.679-0.063 0.536-0.17q0.125-0.839 0.589-1.232-0.875-0.107-1.536-0.33t-1.304-0.696-0.991-1.357-0.348-2.134q0-1.411 0.946-2.446-0.429-1.107 0.089-2.429 0.339-0.107 0.973 0.134t1.080 0.527l0.464 0.286q1.036-0.304 2.286-0.304t2.286 0.304q0.196-0.125 0.509-0.321t0.991-0.464 1.018-0.161q0.518 1.321 0.089 2.429 0.946 1.036 0.946 2.446 0 1.018-0.25 1.795t-0.634 1.25-0.955 0.795-1.116 0.464-1.223 0.214q0.625 0.554 0.625 1.696 0 0.714-0.009 1.589t-0.009 0.911q0 0.214 0.152 0.357t0.473 0.089q2.75-0.929 4.5-3.313t1.75-5.366zM27.429 7.429v17.143q0 2.125-1.509 3.634t-3.634 1.509h-17.143q-2.125 0-3.634-1.509t-1.509-3.634v-17.143q0-2.125 1.509-3.634t3.634-1.509h17.143q2.125 0 3.634 1.509t1.509 3.634z"></path>
</svg>
