<?xml version="1.0" encoding="utf-8"?>
<!-- Generated by IcoMoon.io -->
<!DOCTYPE svg PUBLIC "-//W3C//DTD SVG 1.1//EN" "http://www.w3.org/Graphics/SVG/1.1/DTD/svg11.dtd">
<svg version="1.1" xmlns="http://www.w3.org/2000/svg" xmlns:xlink="http://www.w3.org/1999/xlink" width="30" height="32" viewBox="0 0 30 32">
<path d="M11.429 21.714q0 0.714-0.223 1.464t-0.768 1.357-1.295 0.607-1.295-0.607-0.768-1.357-0.223-1.464 0.223-1.464 0.768-1.357 1.295-0.607 1.295 0.607 0.768 1.357 0.223 1.464zM22.857 21.714q0 0.714-0.223 1.464t-0.768 1.357-1.295 0.607-1.295-0.607-0.768-1.357-0.223-1.464 0.223-1.464 0.768-1.357 1.295-0.607 1.295 0.607 0.768 1.357 0.223 1.464zM25.714 21.714q0-2.143-1.232-3.643t-3.339-1.5q-0.732 0-3.482 0.375-1.268 0.196-2.804 0.196t-2.804-0.196q-2.714-0.375-3.482-0.375-2.107 0-3.339 1.5t-1.232 3.643q0 1.571 0.571 2.741t1.446 1.839 2.179 1.071 2.5 0.527 2.661 0.125h3q1.464 0 2.661-0.125t2.5-0.527 2.179-1.071 1.446-1.839 0.571-2.741zM29.714 18.571q0 3.696-1.089 5.911-0.679 1.375-1.884 2.375t-2.518 1.536-3.036 0.848-3.063 0.393-2.982 0.080q-1.393 0-2.536-0.054t-2.634-0.223-2.723-0.536-2.446-0.92-2.161-1.446-1.536-2.054q-1.107-2.196-1.107-5.911 0-4.232 2.429-7.071-0.482-1.464-0.482-3.036 0-2.071 0.911-3.893 1.929 0 3.393 0.705t3.375 2.205q2.625-0.625 5.518-0.625 2.643 0 5 0.571 1.875-1.464 3.339-2.161t3.375-0.696q0.911 1.821 0.911 3.893 0 1.554-0.482 3 2.429 2.857 2.429 7.107z"></path>
</svg>
