<?xml version="1.0" encoding="utf-8"?>
<!-- Generated by IcoMoon.io -->
<!DOCTYPE svg PUBLIC "-//W3C//DTD SVG 1.1//EN" "http://www.w3.org/Graphics/SVG/1.1/DTD/svg11.dtd">
<svg version="1.1" xmlns="http://www.w3.org/2000/svg" xmlns:xlink="http://www.w3.org/1999/xlink" width="27" height="32" viewBox="0 0 27 32">
<path d="M4.232 25.25h4.125v-12.393h-4.125v12.393zM8.625 9.036q-0.018-0.929-0.643-1.536t-1.661-0.607-1.688 0.607-0.652 1.536q0 0.911 0.634 1.527t1.652 0.616h0.018q1.054 0 1.696-0.616t0.643-1.527zM19.071 25.25h4.125v-7.107q0-2.75-1.304-4.161t-3.446-1.411q-2.429 0-3.732 2.089h0.036v-1.804h-4.125q0.054 1.179 0 12.393h4.125v-6.929q0-0.679 0.125-1 0.268-0.625 0.804-1.063t1.321-0.438q2.071 0 2.071 2.804v6.625zM27.429 7.429v17.143q0 2.125-1.509 3.634t-3.634 1.509h-17.143q-2.125 0-3.634-1.509t-1.509-3.634v-17.143q0-2.125 1.509-3.634t3.634-1.509h17.143q2.125 0 3.634 1.509t1.509 3.634z"></path>
</svg>
