<?xml version="1.0" encoding="utf-8"?>
<!-- Generated by IcoMoon.io -->
<!DOCTYPE svg PUBLIC "-//W3C//DTD SVG 1.1//EN" "http://www.w3.org/Graphics/SVG/1.1/DTD/svg11.dtd">
<svg version="1.1" xmlns="http://www.w3.org/2000/svg" xmlns:xlink="http://www.w3.org/1999/xlink" width="27" height="32" viewBox="0 0 27 32">
<path d="M22.857 21.304q0-0.196-0.036-0.286-0.054-0.143-0.688-0.527t-1.58-0.884l-0.946-0.518q-0.089-0.054-0.339-0.232t-0.446-0.268-0.375-0.089q-0.321 0-0.839 0.58t-1.018 1.17-0.786 0.589q-0.125 0-0.295-0.063t-0.277-0.116-0.304-0.17-0.25-0.152q-1.768-0.982-3.045-2.259t-2.259-3.045q-0.036-0.054-0.152-0.25t-0.17-0.304-0.116-0.277-0.063-0.295q0-0.232 0.366-0.598t0.804-0.688 0.804-0.705 0.366-0.652q0-0.179-0.089-0.375t-0.268-0.446-0.232-0.339q-0.054-0.107-0.268-0.509t-0.446-0.813-0.473-0.848-0.446-0.723-0.295-0.321-0.286-0.036q-0.857 0-1.804 0.393-0.821 0.375-1.429 1.688t-0.607 2.33q0 0.286 0.045 0.607t0.089 0.545 0.161 0.589 0.179 0.527 0.223 0.589 0.196 0.536q1.071 2.929 3.866 5.723t5.723 3.866q0.107 0.036 0.536 0.196t0.589 0.223 0.527 0.179 0.589 0.161 0.545 0.089 0.607 0.045q1.018 0 2.33-0.607t1.688-1.429q0.393-0.946 0.393-1.804zM27.429 7.429v17.143q0 2.125-1.509 3.634t-3.634 1.509h-17.143q-2.125 0-3.634-1.509t-1.509-3.634v-17.143q0-2.125 1.509-3.634t3.634-1.509h17.143q2.125 0 3.634 1.509t1.509 3.634z"></path>
</svg>
