<?xml version="1.0" encoding="utf-8"?>
<!-- Generated by IcoMoon.io -->
<!DOCTYPE svg PUBLIC "-//W3C//DTD SVG 1.1//EN" "http://www.w3.org/Graphics/SVG/1.1/DTD/svg11.dtd">
<svg version="1.1" xmlns="http://www.w3.org/2000/svg" xmlns:xlink="http://www.w3.org/1999/xlink" width="27" height="32" viewBox="0 0 27 32">
<path d="M22.286 2.286q2.125 0 3.634 1.509t1.509 3.634v17.143q0 2.125-1.509 3.634t-3.634 1.509h-12.946q1.518-2.179 1.929-3.75 0.161-0.607 0.946-3.732 0.375 0.696 1.313 1.196t2.009 0.5q3.232 0 5.277-2.634t2.045-6.67q0-1.5-0.625-2.902t-1.723-2.482-2.723-1.732-3.518-0.652q-1.857 0-3.473 0.509t-2.732 1.366-1.92 1.955-1.188 2.286-0.384 2.366q0 1.821 0.705 3.214t2.080 1.964q0.232 0.089 0.42 0t0.259-0.339q0.179-0.786 0.268-1.089 0.107-0.411-0.196-0.75-0.893-1.107-0.893-2.679 0-2.679 1.848-4.58t4.83-1.902q2.661 0 4.152 1.446t1.491 3.75q0 3-1.205 5.107t-3.098 2.107q-1.071 0-1.732-0.777t-0.411-1.848q0.143-0.607 0.473-1.652t0.527-1.821 0.196-1.33q0-0.875-0.473-1.455t-1.348-0.58q-1.089 0-1.848 1.009t-0.759 2.491q0 1.286 0.429 2.161l-1.75 7.393q-0.429 1.786-0.125 4.536h-3.268q-2.125 0-3.634-1.509t-1.509-3.634v-17.143q0-2.125 1.509-3.634t3.634-1.509h17.143z"></path>
</svg>
