<?xml version="1.0" encoding="utf-8"?>
<!-- Generated by IcoMoon.io -->
<!DOCTYPE svg PUBLIC "-//W3C//DTD SVG 1.1//EN" "http://www.w3.org/Graphics/SVG/1.1/DTD/svg11.dtd">
<svg version="1.1" xmlns="http://www.w3.org/2000/svg" xmlns:xlink="http://www.w3.org/1999/xlink" width="27" height="32" viewBox="0 0 27 32">
<path d="M16.768 20.161q0.232 0.232 0 0.464-0.946 0.946-3.054 0.946t-3.054-0.946q-0.232-0.232 0-0.464 0.089-0.107 0.232-0.107t0.232 0.107q0.75 0.75 2.589 0.75t2.589-0.75q0.089-0.107 0.232-0.107t0.232 0.107zM12.071 17.375q0 0.554-0.411 0.964t-0.964 0.411-0.964-0.411-0.411-0.964q0-0.571 0.402-0.973t0.973-0.402 0.973 0.402 0.402 0.973zM18.107 17.375q0 0.554-0.411 0.964t-0.964 0.411-0.964-0.411-0.411-0.964q0-0.571 0.402-0.973t0.973-0.402 0.973 0.402 0.402 0.973zM21.946 15.536q0-0.75-0.536-1.286t-1.304-0.536q-0.75 0-1.304 0.554-2.018-1.393-4.768-1.464l0.964-4.339 3.054 0.696q0.018 0.571 0.42 0.964t0.955 0.393q0.571 0 0.973-0.402t0.402-0.973-0.402-0.973-0.973-0.402q-0.857 0-1.232 0.768l-3.375-0.75q-0.304-0.089-0.375 0.232l-1.071 4.786q-2.75 0.107-4.732 1.482-0.536-0.571-1.321-0.571-0.768 0-1.304 0.536t-0.536 1.286q0 0.536 0.286 0.982t0.75 0.679q-0.089 0.446-0.089 0.857 0 2.179 2.143 3.723t5.161 1.545q3.036 0 5.179-1.545t2.143-3.723q0-0.446-0.107-0.875 0.446-0.232 0.723-0.67t0.277-0.973zM27.429 7.429v17.143q0 2.125-1.509 3.634t-3.634 1.509h-17.143q-2.125 0-3.634-1.509t-1.509-3.634v-17.143q0-2.125 1.509-3.634t3.634-1.509h17.143q2.125 0 3.634 1.509t1.509 3.634z"></path>
</svg>
