<?xml version="1.0" encoding="utf-8"?>
<!-- Generated by IcoMoon.io -->
<!DOCTYPE svg PUBLIC "-//W3C//DTD SVG 1.1//EN" "http://www.w3.org/Graphics/SVG/1.1/DTD/svg11.dtd">
<svg version="1.1" xmlns="http://www.w3.org/2000/svg" xmlns:xlink="http://www.w3.org/1999/xlink" width="27" height="32" viewBox="0 0 27 32">
<path d="M9.143 22.857q0-0.946-0.67-1.616t-1.616-0.67-1.616 0.67-0.67 1.616 0.67 1.616 1.616 0.67 1.616-0.67 0.67-1.616zM15.411 24.536q-0.232-4.143-3.161-7.071t-7.071-3.161q-0.25-0.018-0.429 0.161t-0.179 0.411v2.286q0 0.232 0.152 0.393t0.384 0.179q2.75 0.196 4.714 2.161t2.161 4.714q0.018 0.232 0.179 0.384t0.393 0.152h2.286q0.232 0 0.411-0.179t0.161-0.429zM22.268 24.554q-0.089-2.75-1-5.313t-2.491-4.643-3.661-3.661-4.643-2.491-5.313-1q-0.25-0.018-0.411 0.161-0.179 0.179-0.179 0.411v2.286q0 0.232 0.161 0.393t0.393 0.179q3.643 0.125 6.75 1.991t4.973 4.973 1.991 6.75q0.018 0.232 0.179 0.393t0.393 0.161h2.286q0.232 0 0.411-0.179 0.196-0.161 0.161-0.411zM27.429 7.429v17.143q0 2.125-1.509 3.634t-3.634 1.509h-17.143q-2.125 0-3.634-1.509t-1.509-3.634v-17.143q0-2.125 1.509-3.634t3.634-1.509h17.143q2.125 0 3.634 1.509t1.509 3.634z"></path>
</svg>
