<?xml version="1.0" encoding="utf-8"?>
<!-- Generated by IcoMoon.io -->
<!DOCTYPE svg PUBLIC "-//W3C//DTD SVG 1.1//EN" "http://www.w3.org/Graphics/SVG/1.1/DTD/svg11.dtd">
<svg version="1.1" xmlns="http://www.w3.org/2000/svg" xmlns:xlink="http://www.w3.org/1999/xlink" width="27" height="32" viewBox="0 0 27 32">
<path d="M20.286 26.089l-1.107-3.268q-0.786 0.393-1.839 0.393-0.643 0.018-1.107-0.188t-0.688-0.563-0.313-0.723-0.089-0.777v-7.107h4.589v-3.464h-4.571v-5.821h-3.357q-0.143 0-0.161 0.179-0.089 0.786-0.313 1.554t-0.696 1.696-1.375 1.696-2.116 1.214v2.946h2.321v7.464q0 1.018 0.384 2.054t1.161 1.982 2.161 1.527 3.152 0.545q1.232-0.018 2.438-0.446t1.527-0.893zM27.429 7.429v17.143q0 2.125-1.509 3.634t-3.634 1.509h-17.143q-2.125 0-3.634-1.509t-1.509-3.634v-17.143q0-2.125 1.509-3.634t3.634-1.509h17.143q2.125 0 3.634 1.509t1.509 3.634z"></path>
</svg>
