<?xml version="1.0" encoding="utf-8"?>
<!-- Generated by IcoMoon.io -->
<!DOCTYPE svg PUBLIC "-//W3C//DTD SVG 1.1//EN" "http://www.w3.org/Graphics/SVG/1.1/DTD/svg11.dtd">
<svg version="1.1" xmlns="http://www.w3.org/2000/svg" xmlns:xlink="http://www.w3.org/1999/xlink" width="27" height="32" viewBox="0 0 27 32">
<path d="M23.071 11.393q0.179-3.857-2.875-3.964-4.125-0.143-5.571 4.661 0.786-0.339 1.464-0.339 1.518 0 1.321 1.714-0.071 1.018-1.321 2.982t-1.875 1.964q-0.768 0-1.464-3.018-0.232-0.964-0.804-4.554-0.536-3.375-2.857-3.161-1.054 0.125-2.929 1.786l-2.893 2.571 0.929 1.196q1.357-0.929 1.554-0.929 1.018 0 1.911 3.196 0.268 0.982 0.804 2.938t0.804 2.938q1.214 3.196 2.929 3.196 2.804 0 6.839-5.25 3.929-5.054 4.036-7.929zM27.429 7.429v17.143q0 2.125-1.509 3.634t-3.634 1.509h-17.143q-2.125 0-3.634-1.509t-1.509-3.634v-17.143q0-2.125 1.509-3.634t3.634-1.509h17.143q2.125 0 3.634 1.509t1.509 3.634z"></path>
</svg>
