<?xml version="1.0" encoding="utf-8"?>
<!-- Generated by IcoMoon.io -->
<!DOCTYPE svg PUBLIC "-//W3C//DTD SVG 1.1//EN" "http://www.w3.org/Graphics/SVG/1.1/DTD/svg11.dtd">
<svg version="1.1" xmlns="http://www.w3.org/2000/svg" xmlns:xlink="http://www.w3.org/1999/xlink" width="27" height="32" viewBox="0 0 27 32">
<path d="M16.411 23.268v-2.804q0-0.893-0.518-0.893-0.304 0-0.589 0.286v4q0.286 0.286 0.589 0.286 0.518 0 0.518-0.875zM19.696 21.089h1.179v-0.607q0-0.911-0.589-0.911t-0.589 0.911v0.607zM9.5 16.339v1.25h-1.429v7.554h-1.321v-7.554h-1.393v-1.25h4.143zM13.089 18.589v6.554h-1.196v-0.714q-0.696 0.804-1.357 0.804-0.589 0-0.75-0.5-0.107-0.286-0.107-0.964v-5.179h1.179v4.821q0 0.429 0.018 0.464 0.018 0.268 0.268 0.268 0.357 0 0.75-0.554v-5h1.196zM17.589 20.571v2.607q0 0.929-0.125 1.304-0.214 0.75-0.946 0.75-0.625 0-1.214-0.732v0.643h-1.196v-8.804h1.196v2.875q0.571-0.714 1.214-0.714 0.732 0 0.946 0.75 0.125 0.375 0.125 1.321zM22.071 22.875v0.161q0 0.518-0.036 0.768-0.054 0.393-0.268 0.714-0.482 0.714-1.429 0.714-0.929 0-1.446-0.679-0.375-0.482-0.375-1.536v-2.304q0-1.054 0.357-1.536 0.518-0.679 1.429-0.679t1.393 0.679q0.375 0.5 0.375 1.536v1.357h-2.375v1.161q0 0.911 0.607 0.911 0.429 0 0.536-0.464 0-0.018 0.009-0.125t0.009-0.295v-0.384h1.214zM14.018 8.161v2.786q0 0.911-0.571 0.911t-0.571-0.911v-2.786q0-0.929 0.571-0.929t0.571 0.929zM23.536 20.893q0-3.161-0.339-4.643-0.179-0.786-0.768-1.313t-1.357-0.616q-2.429-0.268-7.357-0.268-4.911 0-7.339 0.268-0.786 0.089-1.366 0.616t-0.759 1.313q-0.357 1.554-0.357 4.643 0 3.143 0.357 4.643 0.179 0.768 0.759 1.304t1.348 0.625q2.446 0.268 7.357 0.268t7.357-0.268q0.768-0.089 1.348-0.625t0.759-1.304q0.357-1.5 0.357-4.643zM10.054 9.268l1.607-5.286h-1.339l-0.911 3.482-0.946-3.482h-1.393l0.429 1.232t0.411 1.232q0.625 1.839 0.821 2.821v3.589h1.321v-3.589zM15.214 10.714v-2.321q0-1.036-0.375-1.554-0.518-0.679-1.393-0.679-0.911 0-1.393 0.679-0.375 0.518-0.375 1.554v2.321q0 1.036 0.375 1.554 0.482 0.679 1.393 0.679 0.875 0 1.393-0.679 0.375-0.482 0.375-1.554zM18.446 12.857h1.196v-6.607h-1.196v5.054q-0.393 0.554-0.75 0.554-0.268 0-0.286-0.286-0.018-0.036-0.018-0.464v-4.857h-1.196v5.232q0 0.661 0.107 0.982 0.196 0.482 0.768 0.482 0.643 0 1.375-0.804v0.714zM27.429 7.429v17.143q0 2.125-1.509 3.634t-3.634 1.509h-17.143q-2.125 0-3.634-1.509t-1.509-3.634v-17.143q0-2.125 1.509-3.634t3.634-1.509h17.143q2.125 0 3.634 1.509t1.509 3.634z"></path>
</svg>
